<svg xmlns="http://www.w3.org/2000/svg" viewBox="0 0 1600 900" preserveAspectRatio="xMidYMid slice"><style>.an{transform-box:fill-box;transform-origin:50% 100%;animation:pp 2.6s ease-in-out infinite}.bt{transform-box:fill-box;transform-origin:50% 50%;animation:bt 2.8s ease-in-out infinite}.sw{transform-box:fill-box;transform-origin:50% 100%;animation:sw 3.8s ease-in-out infinite alternate}@keyframes pp{0%{transform:scale(1)}17.31%{transform:scale(var(--s))}34.62%{transform:scale(1)}100%{transform:scale(1)}}@keyframes bt{0%,55%,100%{transform:scale(1)}28%{transform:scale(1.1)}}@keyframes sw{from{transform:rotate(-.9deg)}to{transform:rotate(.9deg)}}@media (prefers-reduced-motion:reduce){.an,.bt,.sw{animation:none!important}}</style><style>.an{transform-box:fill-box;transform-origin:50% 100%;animation:pp 2.6s ease-in-out infinite}.bt{transform-box:fill-box;transform-origin:50% 50%;animation:bt 2.8s ease-in-out infinite}.sw{transform-box:fill-box;transform-origin:50% 100%;animation:sw 3.8s ease-in-out infinite alternate}@keyframes pp{0%{transform:scale(1)}17.31%{transform:scale(var(--s))}34.62%{transform:scale(1)}100%{transform:scale(1)}}@keyframes bt{0%,55%,100%{transform:scale(1)}28%{transform:scale(1.1)}}@keyframes sw{from{transform:rotate(-.9deg)}to{transform:rotate(.9deg)}}@media (prefers-reduced-motion:reduce){.an,.bt,.sw{animation:none!important}}</style><g transform="translate(800 730) scale(1.193) translate(-800 -730)"><rect x="0" y="0" width="1600" height="900" fill="#C0E5D3"/><rect x="0" y="730" width="1600" height="170" fill="#F3F0E9"/><rect x="466" y="244" width="238" height="16" fill="#111110"/><rect x="490" y="260" width="190" height="430" fill="#12A89A"/><rect x="486" y="682" width="198" height="26" fill="#111110" rx="13"/><circle cx="585" cy="400" r="56" fill="#FF4F9A"/><rect x="520" y="500" width="130" height="26" fill="#C0E5D3" rx="13"/><rect x="520" y="540" width="90" height="26" fill="#C0E5D3" rx="13"/><rect x="681" y="244" width="238" height="16" fill="#111110"/><rect x="705" y="260" width="190" height="430" fill="#2C3FD6"/><rect x="701" y="682" width="198" height="26" fill="#111110" rx="13"/><path d="M800,350l70,110h-140Z" fill="#C0E5D3"/><rect x="735" y="480" width="130" height="26" fill="#111110" rx="13"/><rect x="735" y="520" width="90" height="26" fill="#111110" rx="13"/><rect x="896" y="244" width="238" height="16" fill="#111110"/><rect x="920" y="260" width="190" height="430" fill="#FF4F9A"/><rect x="916" y="682" width="198" height="26" fill="#111110" rx="13"/><rect x="950" y="330" width="130" height="130" fill="#111110" rx="24"/><circle cx="1015" cy="395" r="34" fill="#FF4F9A"/><rect x="950" y="490" width="130" height="26" fill="#C0E5D3" rx="13"/><rect x="950" y="530" width="90" height="26" fill="#C0E5D3" rx="13"/><polygon points="490,730 1110,730 1050,774 430,774" fill="#A9CDBB"/></g></svg>