<svg xmlns="http://www.w3.org/2000/svg" viewBox="0 0 1600 900" preserveAspectRatio="xMidYMid slice"><style>.mp{transform-box:fill-box;transform-origin:50% 50%;animation:mpk 1.9s cubic-bezier(.34,.7,.24,1) infinite}.ms{transform-box:fill-box;transform-origin:50% 100%;animation:msk 2.7s ease-in-out infinite alternate}.mk{animation:mkk 1.6s ease-in-out infinite}.mg{transform-box:fill-box;animation:mgk 2.6s ease-in-out infinite alternate}@keyframes mpk{0%,100%{transform:scale(1)}24%{transform:scale(var(--s,1.12))}48%{transform:scale(1)}}@keyframes msk{from{transform:rotate(calc(-1*var(--sw,1.5deg)))}to{transform:rotate(var(--sw,1.5deg))}}@keyframes mdk{0%{stroke-dashoffset:1}55%{stroke-dashoffset:0}100%{stroke-dashoffset:0}}@keyframes mbk{from{stroke-dashoffset:0}to{stroke-dashoffset:-12}}@keyframes mkk{0%,100%{fill-opacity:1}50%{fill-opacity:var(--k,.25)}}@keyframes mkok{0%,100%{stroke-opacity:1}50%{stroke-opacity:var(--k,.3)}}@keyframes mtk{0%,100%{letter-spacing:calc(var(--l0,0px) - 2px)}50%{letter-spacing:calc(var(--l0,0px) + 3px)}}@keyframes mgk{from{transform:translateY(0)}to{transform:translateY(var(--gy,-5px))}}@media (prefers-reduced-motion:reduce){.mp,.ms,.mk,.mg{animation:none!important}}.hover-scene{transform-box:view-box;transform-origin:50% 80%;animation:hover-scene-motion 2.8s ease-in-out infinite alternate}@keyframes hover-scene-motion{from{transform:translateY(0)}to{transform:translateY(-22px)}}@media(prefers-reduced-motion:reduce){.hover-scene{animation:none!important}}</style><g class="hover-scene"><g transform="translate(800 730) scale(1.074) translate(-800 -730)"><rect x="0" y="0" width="1600" height="900" fill="#F3F0E9"/><rect x="0" y="730" width="1600" height="170" fill="#2C3FD6"/><polygon points="420,730 1180,730 1140,770 380,770" fill="#2231A8" class="mp" style="animation-delay:-0.75s;--s:1.18"/><rect x="420" y="190" width="760" height="540" fill="#FF4F9A"/><rect x="450" y="260" width="700" height="440" fill="#F3F0E9"/><rect x="420" y="190" width="760" height="56" fill="#111110" class="mp" style="animation-delay:-1.23s;--s:1.18"/><rect x="450" y="640" width="700" height="60" fill="#111110"/><rect x="460" y="430" width="680" height="16" fill="#111110"/><rect x="500" y="380" width="70" height="50" fill="#FFE600" rx="6" class="mk" style="animation-delay:-0.50s;--k:.32"/><circle cx="670" cy="406" r="24" fill="#12A89A" class="mp" style="animation-delay:-1.26s;--s:1.18"/><rect x="770" y="370" width="70" height="60" fill="#111110" rx="6" class="mk" style="animation-delay:-0.93s;--k:.32"/><circle cx="940" cy="404" r="26" fill="#FFE600" class="mp" style="animation-delay:-0.68s;--s:1.22"/><rect x="1040" y="374" width="70" height="56" fill="#12A89A" rx="6" class="mk" style="animation-delay:-0.68s;--k:.32"/><rect x="614" y="540" width="12" height="100" fill="#111110" class="ms" style="animation-delay:-0.80s;--sw:4deg"/><ellipse cx="620" cy="640" rx="44" ry="9" fill="#111110"/><polygon points="600,470 640,470 674,590 566,590" fill="#FFE600"/><rect x="612" y="455" width="16" height="18" fill="#E0B084"/><circle cx="620" cy="438" r="22" fill="#E0B084"/><rect x="974" y="540" width="12" height="100" fill="#111110" class="ms" style="animation-delay:-1.39s;--sw:4deg"/><ellipse cx="980" cy="640" rx="44" ry="9" fill="#111110"/><polygon points="960,470 1000,470 1034,590 926,590" fill="#12A89A"/><rect x="972" y="455" width="16" height="18" fill="#E0B084"/><circle cx="980" cy="438" r="22" fill="#E0B084"/></g></g></svg>